<svg width="24" height="24" viewBox="0 0 24 24" fill="none" xmlns="http://www.w3.org/2000/svg">
<path fill-rule="evenodd" clip-rule="evenodd" d="M13.6576 7.3164C13.6012 7.31592 13.5503 7.30922 13.5094 7.30116L13.4448 7.23657C12.775 6.56674 11.6889 6.56656 11.0191 7.23644C10.3492 7.90632 10.3494 8.99237 11.0192 9.6622L11.4241 10.0671L4.96273 16.5272C4.9551 16.5345 4.94764 16.542 4.94037 16.5498C4.74354 16.7536 4.60776 17.0538 4.51345 17.2995C4.40803 17.5742 4.31748 17.884 4.24442 18.1668C4.17082 18.4517 4.1121 18.7205 4.07187 18.9174C4.05169 19.0161 4.03603 19.0974 4.02533 19.1545C4.01998 19.1831 4.01586 19.2056 4.01304 19.2212C4.01162 19.229 4.01054 19.2351 4.00978 19.2394L4.00889 19.2445L4.00852 19.2466C4.00852 19.2466 4.00849 19.2467 4.57144 19.3448L4.00849 19.2467C3.97667 19.4293 4.03538 19.616 4.16598 19.7475C4.29658 19.879 4.48285 19.939 4.66565 19.9084L4.57144 19.3448C4.66565 19.9084 4.66578 19.9084 4.66578 19.9084L4.66595 19.9084L4.66792 19.9081L4.67297 19.9072C4.67726 19.9065 4.68335 19.9054 4.69115 19.9041C4.70675 19.9014 4.72917 19.8974 4.75759 19.8923C4.81439 19.882 4.8953 19.8669 4.99356 19.8474C5.18946 19.8084 5.45721 19.7512 5.74168 19.6785C6.02404 19.6064 6.33411 19.5162 6.61057 19.4095C6.86155 19.3127 7.1636 19.1739 7.3701 18.9724C7.37578 18.967 7.38132 18.9615 7.38674 18.9559L13.8498 12.4928L14.254 12.897C14.9238 13.5668 16.0098 13.567 16.6797 12.8971C17.3496 12.2272 17.3494 11.1412 16.6796 10.4713L16.6245 10.4162C16.6174 10.371 16.612 10.3159 16.6126 10.2558C16.6139 10.1009 16.6524 9.94052 16.7778 9.80295L19.2689 7.8761C19.2872 7.86196 19.3046 7.84672 19.3211 7.83047C20.2444 6.91762 20.2072 5.47793 19.3235 4.59408C18.4443 3.71444 16.9757 3.6632 16.0792 4.60378C16.0657 4.61794 16.053 4.63279 16.041 4.64826L14.1136 7.13837C13.9554 7.28496 13.793 7.31755 13.6576 7.3164ZM16.9249 5.37349L14.9923 7.8703C14.9775 7.88939 14.9615 7.90752 14.9444 7.92459C14.7935 8.07557 14.6346 8.18686 14.4758 8.26758L15.6528 9.44451C15.7312 9.2836 15.8406 9.12294 15.991 8.97254C16.0081 8.95543 16.0263 8.93942 16.0454 8.92461L18.5396 6.9954C18.9752 6.54176 18.9584 5.8452 18.5153 5.40209L18.5152 5.40198C18.0665 4.95311 17.3522 4.94653 16.9249 5.37349ZM6.62289 18.1035L13.0417 11.6847L12.2323 10.8753L5.81279 17.2934C5.80467 17.3084 5.79507 17.3268 5.78469 17.3482C5.74931 17.4212 5.7096 17.5188 5.6849 17.6247C5.63475 17.8397 5.6596 18.0006 5.78789 18.1288C5.91626 18.2571 6.07703 18.2818 6.2917 18.2316C6.3975 18.2069 6.49495 18.1672 6.56781 18.1318C6.58934 18.1213 6.60787 18.1116 6.62289 18.1035ZM11.8272 8.04456C12.0506 7.82112 12.4131 7.82105 12.6367 8.04469L15.8715 11.2795C16.0951 11.5031 16.095 11.8655 15.8716 12.089C15.6481 12.3124 15.2857 12.3125 15.0621 12.0888L14.2674 11.2942C14.2652 11.2918 14.2629 11.2894 14.2607 11.2871C14.2585 11.2848 14.2563 11.2826 14.2541 11.2804C14.2513 11.2776 14.2485 11.2748 14.2456 11.2721C14.2439 11.2704 14.2421 11.2687 14.2403 11.2671L12.6499 9.67668C12.6456 9.67204 12.6411 9.66746 12.6366 9.66294C12.6321 9.65839 12.6275 9.65393 12.6228 9.64956L11.8273 8.85407C11.6037 8.63044 11.6037 8.26801 11.8272 8.04456Z" fill="black"/>
</svg>
